<?xml version="1.0" encoding="UTF-8" standalone="no"?>
<!-- Created with Inkscape (http://www.inkscape.org/) -->

<svg
   width="112.96144mm"
   height="24.188431mm"
   viewBox="0 0 112.96144 24.188431"
   version="1.1"
   id="svg286"
   xml:space="preserve"
   inkscape:version="1.2 (dc2aeda, 2022-05-15)"
   sodipodi:docname="trailer-wip.svg"
   xmlns:inkscape="http://www.inkscape.org/namespaces/inkscape"
   xmlns:sodipodi="http://sodipodi.sourceforge.net/DTD/sodipodi-0.dtd"
   xmlns="http://www.w3.org/2000/svg"
   xmlns:svg="http://www.w3.org/2000/svg"><sodipodi:namedview
     id="namedview288"
     pagecolor="#cacaca"
     bordercolor="#cccccc"
     borderopacity="1"
     inkscape:showpageshadow="false"
     inkscape:pageopacity="0"
     inkscape:pagecheckerboard="false"
     inkscape:deskcolor="#d1d1d1"
     inkscape:document-units="mm"
     showgrid="false"
     showguides="true"
     inkscape:zoom="1.3552099"
     inkscape:cx="240.1842"
     inkscape:cy="536.81722"
     inkscape:window-width="1920"
     inkscape:window-height="1027"
     inkscape:window-x="0"
     inkscape:window-y="25"
     inkscape:window-maximized="1"
     inkscape:current-layer="layer1"
     showborder="true" /><defs
     id="defs283"><inkscape:path-effect
       effect="tiling"
       id="path-effect1350"
       is_visible="true"
       lpeversion="1"
       unit="px"
       seed="1;1"
       lpesatellites=""
       num_rows="1"
       num_cols="21"
       gapx="10.75"
       gapy="0"
       offset="0"
       offset_type="false"
       scale="0"
       rotate="0"
       mirrorrowsx="false"
       mirrorrowsy="false"
       mirrorcolsx="false"
       mirrorcolsy="false"
       mirrortrans="false"
       shrink_interp="false"
       split_items="false"
       link_styles="false"
       interpolate_scalex="false"
       interpolate_scaley="true"
       interpolate_rotatex="false"
       interpolate_rotatey="true"
       random_scale="false"
       random_rotate="false"
       random_gap_y="false"
       random_gap_x="false"
       transformorigin="" /></defs><g
     inkscape:label="Layer 1"
     inkscape:groupmode="layer"
     id="layer1"
     transform="translate(-49.99608,-160.20829)"><g
       id="g2744"
       transform="translate(-5.3567963,28.792785)"><rect
         style="font-variation-settings:'opsz' 32, 'wght' 900;fill:#000000;stroke:#000000;stroke-width:0;stroke-linecap:round;stroke-linejoin:round"
         id="rect897"
         width="112.96144"
         height="24.188421"
         x="55.352879"
         y="131.41551"
         ry="0.94095677" /><rect
         style="font-variation-settings:'opsz' 32, 'wght' 900;fill:#ffffff;stroke:#000000;stroke-width:0;stroke-linecap:round;stroke-linejoin:round"
         id="rect718"
         width="13.944108"
         height="12.139018"
         x="58.183659"
         y="137.44022"
         rx="0.88068044"
         ry="0.76667476" /><rect
         style="font-variation-settings:'opsz' 32, 'wght' 900;fill:#ffffff;stroke:#000000;stroke-width:0;stroke-linecap:round;stroke-linejoin:round"
         id="rect726"
         width="13.944108"
         height="12.139018"
         x="73.74295"
         y="137.44022"
         rx="0.88068044"
         ry="0.76667476" /><rect
         style="font-variation-settings:'opsz' 32, 'wght' 900;fill:#ffffff;stroke:#000000;stroke-width:0;stroke-linecap:round;stroke-linejoin:round"
         id="rect732"
         width="13.944108"
         height="12.139018"
         x="89.302246"
         y="137.44022"
         rx="0.88068044"
         ry="0.76667476" /><rect
         style="font-variation-settings:'opsz' 32, 'wght' 900;fill:#ffffff;stroke:#000000;stroke-width:0;stroke-linecap:round;stroke-linejoin:round"
         id="rect738"
         width="13.944108"
         height="12.139018"
         x="104.86154"
         y="137.44022"
         rx="0.88068044"
         ry="0.76667476" /><rect
         style="font-variation-settings:'opsz' 32, 'wght' 900;fill:#ffffff;stroke:#000000;stroke-width:0;stroke-linecap:round;stroke-linejoin:round"
         id="rect744"
         width="13.944108"
         height="12.139018"
         x="120.42083"
         y="137.44022"
         rx="0.88068044"
         ry="0.76667476" /><rect
         style="font-variation-settings:'opsz' 32, 'wght' 900;fill:#ffffff;stroke:#000000;stroke-width:0;stroke-linecap:round;stroke-linejoin:round"
         id="rect750"
         width="13.944108"
         height="12.139018"
         x="135.98013"
         y="137.44022"
         rx="0.88068044"
         ry="0.76667476" /><rect
         style="font-variation-settings:'opsz' 32, 'wght' 900;fill:#ffffff;stroke:#000000;stroke-width:0;stroke-linecap:round;stroke-linejoin:round"
         id="rect720"
         width="13.944108"
         height="12.139018"
         x="151.53943"
         y="137.44022"
         rx="0.88068044"
         ry="0.76667476" /><g
         id="g2650"
         transform="translate(11.048392,-17.138108)"><text
           xml:space="preserve"
           style="font-style:normal;font-variant:normal;font-weight:normal;font-stretch:normal;font-size:11.2889px;font-family:'Inter Variable';-inkscape-font-specification:'Inter Variable, @opsz=32.0,wght=500';font-variant-ligatures:normal;font-variant-caps:normal;font-variant-numeric:normal;font-variant-east-asian:normal;font-variation-settings:'opsz' 32, 'wght' 500;text-align:center;text-anchor:middle;fill:#1a1a1a;fill-opacity:1;stroke:#000000;stroke-width:0;stroke-linecap:round;stroke-linejoin:round"
           x="50.483845"
           y="176.28488"
           id="text2061"
           transform="scale(1.0717749,0.93303171)"><tspan
             sodipodi:role="line"
             id="tspan2059"
             style="font-style:normal;font-variant:normal;font-weight:normal;font-stretch:normal;font-size:11.2889px;font-family:'Inter Variable';-inkscape-font-specification:'Inter Variable, @opsz=32.0,wght=500';font-variant-ligatures:normal;font-variant-caps:normal;font-variant-numeric:normal;font-variant-east-asian:normal;font-variation-settings:'opsz' 32, 'wght' 500;text-align:center;text-anchor:middle;fill:#1a1a1a;stroke-width:0"
             x="50.483845"
             y="176.28488">T</tspan></text><text
           xml:space="preserve"
           style="font-style:normal;font-variant:normal;font-weight:normal;font-stretch:normal;font-size:11.2889px;font-family:'Inter Variable';-inkscape-font-specification:'Inter Variable, @opsz=32.0,wght=500';font-variant-ligatures:normal;font-variant-caps:normal;font-variant-numeric:normal;font-variant-east-asian:normal;font-variation-settings:'opsz' 32, 'wght' 500;text-align:center;text-anchor:middle;fill:#1a1a1a;fill-opacity:1;stroke:#000000;stroke-width:0;stroke-linecap:round;stroke-linejoin:round"
           x="64.79409"
           y="176.28488"
           id="text730"
           transform="scale(1.0717749,0.93303171)"><tspan
             sodipodi:role="line"
             id="tspan728"
             style="font-style:normal;font-variant:normal;font-weight:normal;font-stretch:normal;font-size:11.2889px;font-family:'Inter Variable';-inkscape-font-specification:'Inter Variable, @opsz=32.0,wght=500';font-variant-ligatures:normal;font-variant-caps:normal;font-variant-numeric:normal;font-variant-east-asian:normal;font-variation-settings:'opsz' 32, 'wght' 500;text-align:center;text-anchor:middle;fill:#1a1a1a;stroke-width:0"
             x="64.79409"
             y="176.28488">R</tspan></text><text
           xml:space="preserve"
           style="font-style:normal;font-variant:normal;font-weight:normal;font-stretch:normal;font-size:11.2889px;font-family:'Inter Variable';-inkscape-font-specification:'Inter Variable, @opsz=32.0,wght=500';font-variant-ligatures:normal;font-variant-caps:normal;font-variant-numeric:normal;font-variant-east-asian:normal;font-variation-settings:'opsz' 32, 'wght' 500;text-align:center;text-anchor:middle;fill:#1a1a1a;fill-opacity:1;stroke:#000000;stroke-width:0;stroke-linecap:round;stroke-linejoin:round"
           x="79.518478"
           y="176.28488"
           id="text736"
           transform="scale(1.0717749,0.93303171)"><tspan
             sodipodi:role="line"
             id="tspan734"
             style="font-style:normal;font-variant:normal;font-weight:normal;font-stretch:normal;font-size:11.2889px;font-family:'Inter Variable';-inkscape-font-specification:'Inter Variable, @opsz=32.0,wght=500';font-variant-ligatures:normal;font-variant-caps:normal;font-variant-numeric:normal;font-variant-east-asian:normal;font-variation-settings:'opsz' 32, 'wght' 500;text-align:center;text-anchor:middle;fill:#1a1a1a;stroke-width:0"
             x="79.518478"
             y="176.28488">A</tspan></text><text
           xml:space="preserve"
           style="font-style:normal;font-variant:normal;font-weight:normal;font-stretch:normal;font-size:11.2889px;font-family:'Inter Variable';-inkscape-font-specification:'Inter Variable, @opsz=32.0,wght=500';font-variant-ligatures:normal;font-variant-caps:normal;font-variant-numeric:normal;font-variant-east-asian:normal;font-variation-settings:'opsz' 32, 'wght' 500;text-align:center;text-anchor:middle;fill:#1a1a1a;fill-opacity:1;stroke:#000000;stroke-width:0;stroke-linecap:round;stroke-linejoin:round"
           x="94.035797"
           y="176.28488"
           id="text742"
           transform="scale(1.0717749,0.93303171)"><tspan
             sodipodi:role="line"
             id="tspan740"
             style="font-style:normal;font-variant:normal;font-weight:normal;font-stretch:normal;font-size:11.2889px;font-family:'Inter Variable';-inkscape-font-specification:'Inter Variable, @opsz=32.0,wght=500';font-variant-ligatures:normal;font-variant-caps:normal;font-variant-numeric:normal;font-variant-east-asian:normal;font-variation-settings:'opsz' 32, 'wght' 500;text-align:center;text-anchor:middle;fill:#1a1a1a;stroke-width:0"
             x="94.035797"
             y="176.28488">I</tspan></text><text
           xml:space="preserve"
           style="font-style:normal;font-variant:normal;font-weight:normal;font-stretch:normal;font-size:11.2889px;font-family:'Inter Variable';-inkscape-font-specification:'Inter Variable, @opsz=32.0,wght=500';font-variant-ligatures:normal;font-variant-caps:normal;font-variant-numeric:normal;font-variant-east-asian:normal;font-variation-settings:'opsz' 32, 'wght' 500;text-align:center;text-anchor:middle;fill:#1a1a1a;fill-opacity:1;stroke:#000000;stroke-width:0;stroke-linecap:round;stroke-linejoin:round"
           x="108.40251"
           y="176.28488"
           id="text748"
           transform="scale(1.0717749,0.93303171)"><tspan
             sodipodi:role="line"
             id="tspan746"
             style="font-style:normal;font-variant:normal;font-weight:normal;font-stretch:normal;font-size:11.2889px;font-family:'Inter Variable';-inkscape-font-specification:'Inter Variable, @opsz=32.0,wght=500';font-variant-ligatures:normal;font-variant-caps:normal;font-variant-numeric:normal;font-variant-east-asian:normal;font-variation-settings:'opsz' 32, 'wght' 500;text-align:center;text-anchor:middle;fill:#1a1a1a;stroke-width:0"
             x="108.40251"
             y="176.28488">L</tspan></text><text
           xml:space="preserve"
           style="font-style:normal;font-variant:normal;font-weight:normal;font-stretch:normal;font-size:11.2889px;font-family:'Inter Variable';-inkscape-font-specification:'Inter Variable, @opsz=32.0,wght=500';font-variant-ligatures:normal;font-variant-caps:normal;font-variant-numeric:normal;font-variant-east-asian:normal;font-variation-settings:'opsz' 32, 'wght' 500;text-align:center;text-anchor:middle;fill:#1a1a1a;fill-opacity:1;stroke:#000000;stroke-width:0;stroke-linecap:round;stroke-linejoin:round"
           x="122.99513"
           y="176.28488"
           id="text754"
           transform="scale(1.0717749,0.93303171)"><tspan
             sodipodi:role="line"
             id="tspan752"
             style="font-style:normal;font-variant:normal;font-weight:normal;font-stretch:normal;font-size:11.2889px;font-family:'Inter Variable';-inkscape-font-specification:'Inter Variable, @opsz=32.0,wght=500';font-variant-ligatures:normal;font-variant-caps:normal;font-variant-numeric:normal;font-variant-east-asian:normal;font-variation-settings:'opsz' 32, 'wght' 500;text-align:center;text-anchor:middle;fill:#1a1a1a;stroke-width:0"
             x="122.99513"
             y="176.28488">E</tspan></text><text
           xml:space="preserve"
           style="font-style:normal;font-variant:normal;font-weight:normal;font-stretch:normal;font-size:11.2889px;font-family:'Inter Variable';-inkscape-font-specification:'Inter Variable, @opsz=32.0,wght=500';font-variant-ligatures:normal;font-variant-caps:normal;font-variant-numeric:normal;font-variant-east-asian:normal;font-variation-settings:'opsz' 32, 'wght' 500;text-align:center;text-anchor:middle;fill:#1a1a1a;fill-opacity:1;stroke:#000000;stroke-width:0;stroke-linecap:round;stroke-linejoin:round"
           x="137.38068"
           y="176.28488"
           id="text724"
           transform="scale(1.0717749,0.93303171)"><tspan
             sodipodi:role="line"
             id="tspan722"
             style="font-style:normal;font-variant:normal;font-weight:normal;font-stretch:normal;font-size:11.2889px;font-family:'Inter Variable';-inkscape-font-specification:'Inter Variable, @opsz=32.0,wght=500';font-variant-ligatures:normal;font-variant-caps:normal;font-variant-numeric:normal;font-variant-east-asian:normal;font-variation-settings:'opsz' 32, 'wght' 500;text-align:center;text-anchor:middle;fill:#1a1a1a;stroke-width:0"
             x="137.38068"
             y="176.28488">R</tspan></text></g><text
         xml:space="preserve"
         style="font-style:normal;font-variant:normal;font-weight:normal;font-stretch:normal;font-size:3.47329px;font-family:'Inter Variable';-inkscape-font-specification:'Inter Variable, @opsz=32.0,wght=900';font-variant-ligatures:normal;font-variant-caps:normal;font-variant-numeric:normal;font-variant-east-asian:normal;font-variation-settings:'opsz' 32, 'wght' 900;text-align:center;letter-spacing:1.19062px;text-anchor:middle;fill:#ffffff;stroke:#000000;stroke-width:0;stroke-linecap:round;stroke-linejoin:round"
         x="111.78526"
         y="154.20378"
         id="text1035"><tspan
           sodipodi:role="line"
           id="tspan1033"
           style="font-style:normal;font-variant:normal;font-weight:normal;font-stretch:normal;font-size:3.47329px;font-family:'Inter Variable';-inkscape-font-specification:'Inter Variable, @opsz=32.0,wght=900';font-variant-ligatures:normal;font-variant-caps:normal;font-variant-numeric:normal;font-variant-east-asian:normal;font-variation-settings:'opsz' 32, 'wght' 900;fill:#ffffff;stroke-width:0"
           x="112.38057"
           y="154.20378">STACK</tspan></text><path
         style="font-variation-settings:'opsz' 32, 'wght' 600;fill:#ffffff;stroke:#000000;stroke-width:0;stroke-linecap:round;stroke-linejoin:round"
         id="rect1346"
         width="2.4000001"
         height="2.4000001"
         x="47.135265"
         y="148.32613"
         ry="0.46891421"
         inkscape:path-effect="#path-effect1350"
         class="UnoptimicedTransforms"
         d="m 47.60418,148.32613 h 1.462171 c 0.259779,0 0.468914,0.20913 0.468914,0.46891 v 1.46217 c 0,0.25978 -0.209135,0.46892 -0.468914,0.46892 H 47.60418 c -0.259779,0 -0.468915,-0.20914 -0.468915,-0.46892 v -1.46217 c 0,-0.25978 0.209136,-0.46891 0.468915,-0.46891 z m 5.24427,0 h 1.462172 c 0.259779,0 0.468914,0.20913 0.468914,0.46891 v 1.46217 c 0,0.25978 -0.209135,0.46892 -0.468914,0.46892 H 52.84845 c -0.259778,0 -0.468914,-0.20914 -0.468914,-0.46892 v -1.46217 c 0,-0.25978 0.209136,-0.46891 0.468914,-0.46891 z m 5.244271,0 h 1.462172 c 0.259779,0 0.468914,0.20913 0.468914,0.46891 v 1.46217 c 0,0.25978 -0.209135,0.46892 -0.468914,0.46892 h -1.462172 c -0.259778,0 -0.468914,-0.20914 -0.468914,-0.46892 v -1.46217 c 0,-0.25978 0.209136,-0.46891 0.468914,-0.46891 z m 5.244271,0 h 1.462172 c 0.259778,0 0.468914,0.20913 0.468914,0.46891 v 1.46217 c 0,0.25978 -0.209136,0.46892 -0.468914,0.46892 h -1.462172 c -0.259778,0 -0.468914,-0.20914 -0.468914,-0.46892 v -1.46217 c 0,-0.25978 0.209136,-0.46891 0.468914,-0.46891 z m 5.244271,0 h 1.462172 c 0.259778,0 0.468914,0.20913 0.468914,0.46891 v 1.46217 c 0,0.25978 -0.209136,0.46892 -0.468914,0.46892 h -1.462172 c -0.259778,0 -0.468914,-0.20914 -0.468914,-0.46892 v -1.46217 c 0,-0.25978 0.209136,-0.46891 0.468914,-0.46891 z m 5.244271,0 h 1.462172 c 0.259778,0 0.468914,0.20913 0.468914,0.46891 v 1.46217 c 0,0.25978 -0.209136,0.46892 -0.468914,0.46892 h -1.462172 c -0.259778,0 -0.468914,-0.20914 -0.468914,-0.46892 v -1.46217 c 0,-0.25978 0.209136,-0.46891 0.468914,-0.46891 z m 5.244271,0 h 1.462172 c 0.259778,0 0.468914,0.20913 0.468914,0.46891 v 1.46217 c 0,0.25978 -0.209136,0.46892 -0.468914,0.46892 h -1.462172 c -0.259778,0 -0.468914,-0.20914 -0.468914,-0.46892 v -1.46217 c 0,-0.25978 0.209136,-0.46891 0.468914,-0.46891 z m 5.244271,0 h 1.462172 c 0.259778,0 0.468914,0.20913 0.468914,0.46891 v 1.46217 c 0,0.25978 -0.209136,0.46892 -0.468914,0.46892 h -1.462172 c -0.259778,0 -0.468914,-0.20914 -0.468914,-0.46892 v -1.46217 c 0,-0.25978 0.209136,-0.46891 0.468914,-0.46891 z m 5.244271,0 h 1.462172 c 0.259778,0 0.468914,0.20913 0.468914,0.46891 v 1.46217 c 0,0.25978 -0.209136,0.46892 -0.468914,0.46892 h -1.462172 c -0.259778,0 -0.468914,-0.20914 -0.468914,-0.46892 v -1.46217 c 0,-0.25978 0.209136,-0.46891 0.468914,-0.46891 z m 5.244271,0 h 1.462172 c 0.259778,0 0.468914,0.20913 0.468914,0.46891 v 1.46217 c 0,0.25978 -0.209136,0.46892 -0.468914,0.46892 h -1.462172 c -0.259779,0 -0.468914,-0.20914 -0.468914,-0.46892 v -1.46217 c 0,-0.25978 0.209135,-0.46891 0.468914,-0.46891 z m 5.244272,0 h 1.46217 c 0.25978,0 0.46891,0.20913 0.46891,0.46891 v 1.46217 c 0,0.25978 -0.20913,0.46892 -0.46891,0.46892 h -1.46217 c -0.25978,0 -0.468915,-0.20914 -0.468915,-0.46892 v -1.46217 c 0,-0.25978 0.209135,-0.46891 0.468915,-0.46891 z m 5.24427,0 h 1.46217 c 0.25978,0 0.46892,0.20913 0.46892,0.46891 v 1.46217 c 0,0.25978 -0.20914,0.46892 -0.46892,0.46892 h -1.46217 c -0.25978,0 -0.46891,-0.20914 -0.46891,-0.46892 v -1.46217 c 0,-0.25978 0.20913,-0.46891 0.46891,-0.46891 z m 5.24427,0 h 1.46217 c 0.25978,0 0.46892,0.20913 0.46892,0.46891 v 1.46217 c 0,0.25978 -0.20914,0.46892 -0.46892,0.46892 h -1.46217 c -0.25978,0 -0.46891,-0.20914 -0.46891,-0.46892 v -1.46217 c 0,-0.25978 0.20913,-0.46891 0.46891,-0.46891 z m 5.24427,0 h 1.46217 c 0.25978,0 0.46892,0.20913 0.46892,0.46891 v 1.46217 c 0,0.25978 -0.20914,0.46892 -0.46892,0.46892 h -1.46217 c -0.25978,0 -0.46891,-0.20914 -0.46891,-0.46892 v -1.46217 c 0,-0.25978 0.20913,-0.46891 0.46891,-0.46891 z m 5.24427,0 h 1.46217 c 0.25978,0 0.46892,0.20913 0.46892,0.46891 v 1.46217 c 0,0.25978 -0.20914,0.46892 -0.46892,0.46892 h -1.46217 c -0.25978,0 -0.46891,-0.20914 -0.46891,-0.46892 v -1.46217 c 0,-0.25978 0.20913,-0.46891 0.46891,-0.46891 z m 5.24427,0 h 1.46218 c 0.25977,0 0.46891,0.20913 0.46891,0.46891 v 1.46217 c 0,0.25978 -0.20914,0.46892 -0.46891,0.46892 h -1.46218 c -0.25977,0 -0.46891,-0.20914 -0.46891,-0.46892 v -1.46217 c 0,-0.25978 0.20914,-0.46891 0.46891,-0.46891 z m 5.24427,0 h 1.46218 c 0.25977,0 0.46891,0.20913 0.46891,0.46891 v 1.46217 c 0,0.25978 -0.20914,0.46892 -0.46891,0.46892 h -1.46218 c -0.25977,0 -0.46891,-0.20914 -0.46891,-0.46892 v -1.46217 c 0,-0.25978 0.20914,-0.46891 0.46891,-0.46891 z m 5.24428,0 h 1.46217 c 0.25978,0 0.46891,0.20913 0.46891,0.46891 v 1.46217 c 0,0.25978 -0.20913,0.46892 -0.46891,0.46892 h -1.46217 c -0.25978,0 -0.46892,-0.20914 -0.46892,-0.46892 v -1.46217 c 0,-0.25978 0.20914,-0.46891 0.46892,-0.46891 z m 5.24427,0 h 1.46217 c 0.25978,0 0.46891,0.20913 0.46891,0.46891 v 1.46217 c 0,0.25978 -0.20913,0.46892 -0.46891,0.46892 h -1.46217 c -0.25978,0 -0.46892,-0.20914 -0.46892,-0.46892 v -1.46217 c 0,-0.25978 0.20914,-0.46891 0.46892,-0.46891 z m 5.24427,0 h 1.46217 c 0.25978,0 0.46891,0.20913 0.46891,0.46891 v 1.46217 c 0,0.25978 -0.20913,0.46892 -0.46891,0.46892 h -1.46217 c -0.25978,0 -0.46892,-0.20914 -0.46892,-0.46892 v -1.46217 c 0,-0.25978 0.20914,-0.46891 0.46892,-0.46891 z m 5.24427,0 h 1.46217 c 0.25978,0 0.46891,0.20913 0.46891,0.46891 v 1.46217 c 0,0.25978 -0.20913,0.46892 -0.46891,0.46892 h -1.46217 c -0.25978,0 -0.46892,-0.20914 -0.46892,-0.46892 v -1.46217 c 0,-0.25978 0.20914,-0.46891 0.46892,-0.46891 z"
         sodipodi:type="rect"
         transform="translate(11.055624,-15.446976)" /><path
         style="font-variation-settings:'opsz' 32, 'wght' 600;fill:#ffffff;stroke:#000000;stroke-width:0;stroke-linecap:round;stroke-linejoin:round"
         d="m 163.54522,151.74031 h 1.46217 c 0.25978,0 0.46891,0.20913 0.46891,0.46891 v 1.46217 c 0,0.25978 -0.20913,0.46892 -0.46891,0.46892 h -1.46217 c -0.25978,0 -0.46892,-0.20914 -0.46892,-0.46892 v -1.46217 c 0,-0.25978 0.20914,-0.46891 0.46892,-0.46891 z"
         id="path1962" /><path
         style="font-variation-settings:'opsz' 32, 'wght' 600;fill:#ffffff;stroke:#000000;stroke-width:0;stroke-linecap:round;stroke-linejoin:round"
         d="m 158.30095,151.74031 h 1.46217 c 0.25978,0 0.46891,0.20913 0.46891,0.46891 v 1.46217 c 0,0.25978 -0.20913,0.46892 -0.46891,0.46892 h -1.46217 c -0.25978,0 -0.46892,-0.20914 -0.46892,-0.46892 v -1.46217 c 0,-0.25978 0.20914,-0.46891 0.46892,-0.46891 z"
         id="path1960" /><path
         style="font-variation-settings:'opsz' 32, 'wght' 600;fill:#ffffff;stroke:#000000;stroke-width:0;stroke-linecap:round;stroke-linejoin:round"
         d="m 153.05668,151.74031 h 1.46217 c 0.25978,0 0.46891,0.20913 0.46891,0.46891 v 1.46217 c 0,0.25978 -0.20913,0.46892 -0.46891,0.46892 h -1.46217 c -0.25978,0 -0.46892,-0.20914 -0.46892,-0.46892 v -1.46217 c 0,-0.25978 0.20914,-0.46891 0.46892,-0.46891 z"
         id="path1958" /><path
         style="font-variation-settings:'opsz' 32, 'wght' 600;fill:#ffffff;stroke:#000000;stroke-width:0;stroke-linecap:round;stroke-linejoin:round"
         d="m 147.81241,151.74031 h 1.46217 c 0.25978,0 0.46891,0.20913 0.46891,0.46891 v 1.46217 c 0,0.25978 -0.20913,0.46892 -0.46891,0.46892 h -1.46217 c -0.25978,0 -0.46892,-0.20914 -0.46892,-0.46892 v -1.46217 c 0,-0.25978 0.20914,-0.46891 0.46892,-0.46891 z"
         id="path1956" /><path
         style="font-variation-settings:'opsz' 32, 'wght' 600;fill:#ffffff;stroke:#000000;stroke-width:0;stroke-linecap:round;stroke-linejoin:round"
         d="m 142.56813,151.74031 h 1.46218 c 0.25977,0 0.46891,0.20913 0.46891,0.46891 v 1.46217 c 0,0.25978 -0.20914,0.46892 -0.46891,0.46892 h -1.46218 c -0.25977,0 -0.46891,-0.20914 -0.46891,-0.46892 v -1.46217 c 0,-0.25978 0.20914,-0.46891 0.46891,-0.46891 z"
         id="path1954" /><path
         style="font-variation-settings:'opsz' 32, 'wght' 600;fill:#ffffff;stroke:#000000;stroke-width:0;stroke-linecap:round;stroke-linejoin:round"
         d="m 137.32386,151.74031 h 1.46218 c 0.25977,0 0.46891,0.20913 0.46891,0.46891 v 1.46217 c 0,0.25978 -0.20914,0.46892 -0.46891,0.46892 h -1.46218 c -0.25977,0 -0.46891,-0.20914 -0.46891,-0.46892 v -1.46217 c 0,-0.25978 0.20914,-0.46891 0.46891,-0.46891 z"
         id="path1952" /><path
         style="font-variation-settings:'opsz' 32, 'wght' 600;fill:#ffffff;stroke:#000000;stroke-width:0;stroke-linecap:round;stroke-linejoin:round"
         d="m 132.07959,151.74031 h 1.46217 c 0.25978,0 0.46892,0.20913 0.46892,0.46891 v 1.46217 c 0,0.25978 -0.20914,0.46892 -0.46892,0.46892 h -1.46217 c -0.25978,0 -0.46891,-0.20914 -0.46891,-0.46892 v -1.46217 c 0,-0.25978 0.20913,-0.46891 0.46891,-0.46891 z"
         id="path1950" /><path
         style="font-variation-settings:'opsz' 32, 'wght' 600;fill:#ffffff;stroke:#000000;stroke-width:0;stroke-linecap:round;stroke-linejoin:round"
         d="m 126.83532,151.74031 h 1.46217 c 0.25978,0 0.46892,0.20913 0.46892,0.46891 v 1.46217 c 0,0.25978 -0.20914,0.46892 -0.46892,0.46892 h -1.46217 c -0.25978,0 -0.46891,-0.20914 -0.46891,-0.46892 v -1.46217 c 0,-0.25978 0.20913,-0.46891 0.46891,-0.46891 z"
         id="path1948" /><path
         style="font-variation-settings:'opsz' 32, 'wght' 600;fill:#ffffff;stroke:#000000;stroke-width:0;stroke-linecap:round;stroke-linejoin:round"
         d="m 95.3697,151.74031 h 1.462172 c 0.259778,0 0.468914,0.20913 0.468914,0.46891 v 1.46217 c 0,0.25978 -0.209136,0.46892 -0.468914,0.46892 H 95.3697 c -0.259778,0 -0.468914,-0.20914 -0.468914,-0.46892 v -1.46217 c 0,-0.25978 0.209136,-0.46891 0.468914,-0.46891 z"
         id="path1936" /><path
         style="font-variation-settings:'opsz' 32, 'wght' 600;fill:#ffffff;stroke:#000000;stroke-width:0;stroke-linecap:round;stroke-linejoin:round"
         d="m 90.125429,151.74031 h 1.462172 c 0.259778,0 0.468914,0.20913 0.468914,0.46891 v 1.46217 c 0,0.25978 -0.209136,0.46892 -0.468914,0.46892 h -1.462172 c -0.259778,0 -0.468914,-0.20914 -0.468914,-0.46892 v -1.46217 c 0,-0.25978 0.209136,-0.46891 0.468914,-0.46891 z"
         id="path1934" /><path
         style="font-variation-settings:'opsz' 32, 'wght' 600;fill:#ffffff;stroke:#000000;stroke-width:0;stroke-linecap:round;stroke-linejoin:round"
         d="m 84.881158,151.74031 h 1.462172 c 0.259778,0 0.468914,0.20913 0.468914,0.46891 v 1.46217 c 0,0.25978 -0.209136,0.46892 -0.468914,0.46892 h -1.462172 c -0.259778,0 -0.468914,-0.20914 -0.468914,-0.46892 v -1.46217 c 0,-0.25978 0.209136,-0.46891 0.468914,-0.46891 z"
         id="path1932" /><path
         style="font-variation-settings:'opsz' 32, 'wght' 600;fill:#ffffff;stroke:#000000;stroke-width:0;stroke-linecap:round;stroke-linejoin:round"
         d="m 79.636887,151.74031 h 1.462172 c 0.259778,0 0.468914,0.20913 0.468914,0.46891 v 1.46217 c 0,0.25978 -0.209136,0.46892 -0.468914,0.46892 h -1.462172 c -0.259778,0 -0.468914,-0.20914 -0.468914,-0.46892 v -1.46217 c 0,-0.25978 0.209136,-0.46891 0.468914,-0.46891 z"
         id="path1930" /><path
         style="font-variation-settings:'opsz' 32, 'wght' 600;fill:#ffffff;stroke:#000000;stroke-width:0;stroke-linecap:round;stroke-linejoin:round"
         d="m 74.392616,151.74031 h 1.462172 c 0.259778,0 0.468914,0.20913 0.468914,0.46891 v 1.46217 c 0,0.25978 -0.209136,0.46892 -0.468914,0.46892 h -1.462172 c -0.259778,0 -0.468914,-0.20914 -0.468914,-0.46892 v -1.46217 c 0,-0.25978 0.209136,-0.46891 0.468914,-0.46891 z"
         id="path1928" /><path
         style="font-variation-settings:'opsz' 32, 'wght' 600;fill:#ffffff;stroke:#000000;stroke-width:0;stroke-linecap:round;stroke-linejoin:round"
         d="m 69.148345,151.74031 h 1.462172 c 0.259779,0 0.468914,0.20913 0.468914,0.46891 v 1.46217 c 0,0.25978 -0.209135,0.46892 -0.468914,0.46892 h -1.462172 c -0.259778,0 -0.468914,-0.20914 -0.468914,-0.46892 v -1.46217 c 0,-0.25978 0.209136,-0.46891 0.468914,-0.46891 z"
         id="path1926" /><path
         style="font-variation-settings:'opsz' 32, 'wght' 600;fill:#ffffff;stroke:#000000;stroke-width:0;stroke-linecap:round;stroke-linejoin:round"
         d="m 63.904074,151.74031 h 1.462172 c 0.259779,0 0.468914,0.20913 0.468914,0.46891 v 1.46217 c 0,0.25978 -0.209135,0.46892 -0.468914,0.46892 h -1.462172 c -0.259778,0 -0.468914,-0.20914 -0.468914,-0.46892 v -1.46217 c 0,-0.25978 0.209136,-0.46891 0.468914,-0.46891 z"
         id="path1924" /><path
         style="font-variation-settings:'opsz' 32, 'wght' 600;fill:#ffffff;stroke:#000000;stroke-width:0;stroke-linecap:round;stroke-linejoin:round"
         d="m 58.659804,151.74031 h 1.462171 c 0.259779,0 0.468914,0.20913 0.468914,0.46891 v 1.46217 c 0,0.25978 -0.209135,0.46892 -0.468914,0.46892 h -1.462171 c -0.259779,0 -0.468915,-0.20914 -0.468915,-0.46892 v -1.46217 c 0,-0.25978 0.209136,-0.46891 0.468915,-0.46891 z"
         id="path1915" /></g></g></svg>
