<?xml version="1.0" encoding="UTF-8" standalone="no"?>
<!-- Created with Inkscape (http://www.inkscape.org/) -->

<svg
   width="99.379631"
   height="99.376801"
   viewBox="0 0 26.294193 26.293446"
   version="1.1"
   id="svg5"
   xml:space="preserve"
   inkscape:version="1.2 (dc2aeda, 2022-05-15)"
   sodipodi:docname="trailer-landing-page-design.svg"
   xmlns:inkscape="http://www.inkscape.org/namespaces/inkscape"
   xmlns:sodipodi="http://sodipodi.sourceforge.net/DTD/sodipodi-0.dtd"
   xmlns="http://www.w3.org/2000/svg"
   xmlns:svg="http://www.w3.org/2000/svg"><sodipodi:namedview
     id="namedview7"
     pagecolor="#4a1e7b"
     bordercolor="#cccccc"
     borderopacity="1"
     inkscape:showpageshadow="0"
     inkscape:pageopacity="1"
     inkscape:pagecheckerboard="0"
     inkscape:deskcolor="#d1d1d1"
     inkscape:document-units="mm"
     showgrid="false"
     inkscape:zoom="0.39485123"
     inkscape:cx="638.21506"
     inkscape:cy="378.62362"
     inkscape:window-width="1920"
     inkscape:window-height="1027"
     inkscape:window-x="0"
     inkscape:window-y="25"
     inkscape:window-maximized="1"
     inkscape:current-layer="layer1" /><defs
     id="defs2" /><g
     inkscape:label="Layer 1"
     inkscape:groupmode="layer"
     id="layer1"
     transform="translate(53.634016)"><g
       id="g15466"
       transform="matrix(0.48189538,0,0,0.48189538,-126.00156,-124.88767)"><path
         id="rect15457"
         style="font-variation-settings:'wght' 500;opacity:1;fill:#ffffff;stroke-width:1.55497;stroke-linecap:round;stroke-linejoin:round"
         d="m 150.17273,259.15931 h 54.56411 v 54.56256 h -54.56411 z" /><path
         id="path15282"
         style="font-variation-settings:'wght' 500;opacity:1;fill:#000000;fill-opacity:1;stroke-width:1.381;stroke-linecap:round;stroke-linejoin:round"
         d="m 150.17273,259.15931 v 54.56256 h 1.94923 50.66564 1.94924 v -54.56256 h -1.94924 -50.66564 z m 3.89847,3.66644 h 5.47202 v 5.47202 h -5.47202 z m 10.32443,0 h 5.4715 v 5.47202 h -5.4715 z m 10.3234,0 h 5.4715 v 5.47202 h -5.4715 z m 10.32392,0 h 5.47202 v 5.47202 h -5.47202 z m 10.32444,0 h 5.47098 v 5.47202 h -5.47098 z m -41.29619,8.51266 h 46.76717 v 30.20436 H 154.0712 Z m 0,33.24552 h 5.47202 v 5.47201 h -5.47202 z m 10.32443,0 h 5.4715 v 5.47201 h -5.4715 z m 10.3234,0 h 5.4715 v 5.47201 h -5.4715 z m 10.32392,0 h 5.47202 v 5.47201 h -5.47202 z m 10.32444,0 h 5.47098 v 5.47201 h -5.47098 z" /></g></g></svg>
