<?xml version="1.0" encoding="UTF-8" standalone="no"?>
<!-- Created with Inkscape (http://www.inkscape.org/) -->

<svg
   width="33.829624mm"
   height="48.758087mm"
   viewBox="0 0 33.829624 48.758087"
   version="1.1"
   id="svg5"
   xml:space="preserve"
   inkscape:version="1.2 (dc2aeda, 2022-05-15)"
   sodipodi:docname="wip.svg"
   xmlns:inkscape="http://www.inkscape.org/namespaces/inkscape"
   xmlns:sodipodi="http://sodipodi.sourceforge.net/DTD/sodipodi-0.dtd"
   xmlns="http://www.w3.org/2000/svg"
   xmlns:svg="http://www.w3.org/2000/svg"><sodipodi:namedview
     id="namedview7"
     pagecolor="#ffffff"
     bordercolor="#cccccc"
     borderopacity="1"
     inkscape:showpageshadow="0"
     inkscape:pageopacity="1"
     inkscape:pagecheckerboard="0"
     inkscape:deskcolor="#d1d1d1"
     inkscape:document-units="mm"
     showgrid="false"
     inkscape:zoom="1"
     inkscape:cx="351.5"
     inkscape:cy="553.5"
     inkscape:window-width="1920"
     inkscape:window-height="1027"
     inkscape:window-x="-7"
     inkscape:window-y="25"
     inkscape:window-maximized="0"
     inkscape:current-layer="layer1" /><defs
     id="defs2" /><g
     inkscape:label="Layer 1"
     inkscape:groupmode="layer"
     id="layer1"
     transform="translate(-20.052565,-202.73153)"><path
       style="fill:#ffffff;stroke:#000000;stroke-width:0.264583px"
       d="m 20.469946,202.86382 h 15.213541 c 0,3.04271 -1.140354,7.60677 1.140355,6.46642 2.283354,-1.14036 2.283354,3.42371 0,2.28071 -2.280709,-1.14036 -1.140355,3.42371 -1.140355,6.46641 -3.042708,0 -7.60677,-1.14035 -6.466416,1.14036 1.143,2.28335 -3.421063,2.28335 -2.280708,0 1.140354,-2.28071 -3.423709,-1.14036 -6.466417,-1.14036 z"
       id="path13257"
       inkscape:export-filename="puzzle-1.png"
       inkscape:export-xdpi="96"
       inkscape:export-ydpi="96" /><path
       style="fill:#ffffff;stroke:#000000;stroke-width:0.264583px"
       d="m 20.469942,233.2909 c 3.042708,0 7.606771,1.14036 6.466417,-1.14035 -1.140355,-2.28335 3.423708,-2.28335 2.280708,0 -1.140354,2.28071 3.423708,1.14035 6.466416,1.14035 0,3.04271 1.140355,7.60677 -1.140354,6.46642 -2.283354,-1.14035 -2.283354,3.42371 0,2.28071 2.280709,-1.14036 1.140354,3.42371 1.140354,6.46642 -3.042708,0 -7.60677,-1.14036 -6.466416,1.14035 1.143,2.28335 -3.421063,2.28335 -2.280708,0 1.140354,-2.28071 -3.423709,-1.14035 -6.466417,-1.14035 z"
       id="path13261" /><path
       style="fill:#ffffff;stroke:#000000;stroke-width:0.264583px"
       d="m 35.683491,218.07737 c 3.042709,0 7.606771,1.14035 6.466417,-1.14036 -1.140354,-2.28335 3.423708,-2.28335 2.280708,0 -1.140354,2.28071 3.423709,1.14036 6.466417,1.14036 0,3.04271 -1.140354,7.60677 1.140354,6.46641 2.283354,-1.14035 2.283354,3.42371 0,2.28071 -2.280708,-1.14035 -1.140354,3.42371 -1.140354,6.46642 -3.042708,0 -7.606771,-1.14035 -6.466417,1.14035 1.143,2.28336 -3.421062,2.28336 -2.280708,0 1.140354,-2.2807 -3.423708,-1.14035 -6.466417,-1.14035 0,-3.04271 1.140355,-7.60677 -1.140354,-6.46642 -2.283354,1.143 -2.283354,-3.42106 0,-2.28071 2.280709,1.14036 1.140354,-3.4237 1.140354,-6.46641 z"
       id="path13281" /><path
       style="fill:#ffffff;stroke:#000000;stroke-width:0.264583px"
       d="m 20.469946,218.07737 c 3.042709,0 7.606771,-1.14036 6.466417,1.14035 -1.140354,2.28335 3.423704,2.28335 2.280704,0 -1.14035,-2.28071 3.42371,-1.14035 6.46642,-1.14035 0,3.0427 1.14036,7.60677 -1.14035,6.46641 -2.28336,-1.14035 -2.28336,3.42371 0,2.28071 2.28071,-1.14035 1.14035,3.42371 1.14035,6.46642 -3.04271,0 -7.60677,1.14035 -6.46642,-1.14036 1.143,-2.28335 -3.421058,-2.28335 -2.280704,0 1.140354,2.28071 -3.423708,1.14036 -6.466417,1.14036 0,-3.04271 -1.140354,-7.60677 1.140355,-6.46642 2.283354,1.143 2.283354,-3.42106 0,-2.28071 -2.280709,1.14036 -1.140355,-3.42371 -1.140355,-6.46641 z"
       id="path13309" /><path
       style="fill:#ffffff;stroke:#000000;stroke-width:0.264583px"
       d="m 35.683483,233.2909 c 3.042709,0 7.606771,-1.14035 6.466417,1.14036 -1.140354,2.28335 3.423704,2.28335 2.280704,0 -1.14035,-2.28071 3.42371,-1.14036 6.46642,-1.14036 0,3.04271 1.14036,7.60677 -1.14035,6.46642 -2.28336,-1.14036 -2.28336,3.42371 0,2.28071 2.28071,-1.14036 1.14035,3.42371 1.14035,6.46641 H 35.683483 c 0,-3.0427 1.140355,-7.60677 -1.140354,-6.46641 -2.283354,1.143 -2.283354,-3.42107 0,-2.28071 2.280709,1.14035 1.140354,-3.42371 1.140354,-6.46642 z"
       id="path13319" /></g></svg>
