<?xml version="1.0" encoding="UTF-8" standalone="no"?>
<!-- Created with Inkscape (http://www.inkscape.org/) -->

<svg
   width="185.35995"
   height="80.065018"
   viewBox="0 0 49.043153 21.183869"
   version="1.1"
   id="svg5"
   xml:space="preserve"
   inkscape:version="1.2 (dc2aeda, 2022-05-15)"
   sodipodi:docname="wip.svg"
   xmlns:inkscape="http://www.inkscape.org/namespaces/inkscape"
   xmlns:sodipodi="http://sodipodi.sourceforge.net/DTD/sodipodi-0.dtd"
   xmlns="http://www.w3.org/2000/svg"
   xmlns:svg="http://www.w3.org/2000/svg"><sodipodi:namedview
     id="namedview7"
     pagecolor="#ffffff"
     bordercolor="#cccccc"
     borderopacity="1"
     inkscape:showpageshadow="0"
     inkscape:pageopacity="1"
     inkscape:pagecheckerboard="0"
     inkscape:deskcolor="#d1d1d1"
     inkscape:document-units="mm"
     showgrid="false"
     inkscape:zoom="0.57530785"
     inkscape:cx="977.7374"
     inkscape:cy="664.86143"
     inkscape:window-width="1920"
     inkscape:window-height="1027"
     inkscape:window-x="0"
     inkscape:window-y="25"
     inkscape:window-maximized="0"
     inkscape:current-layer="layer1" /><defs
     id="defs2" /><g
     inkscape:label="Layer 1"
     inkscape:groupmode="layer"
     id="layer1"
     transform="translate(-349.38331,-150.44138)"><path
       style="fill:#ffffff;stroke:#000000;stroke-width:0.264583px"
       d="m 352.36848,153.42653 c 3.04271,0 7.60677,1.14036 6.46642,-1.14035 -1.14036,-2.28336 3.42371,-2.28336 2.28071,0 -1.14036,2.28071 3.4237,1.14035 6.46641,1.14035 0,3.04271 1.14036,7.60677 -1.14035,6.46642 -2.28336,-1.14036 -2.28336,3.42371 0,2.28071 2.28071,-1.14036 1.14035,3.4237 1.14035,6.46641 -3.04271,0 -7.60677,1.14036 -6.46641,-1.14035 1.143,-2.28336 -3.42107,-2.28336 -2.28071,0 1.14035,2.28071 -3.42371,1.14035 -6.46642,1.14035 0,-3.04271 1.14036,-7.60677 -1.14035,-6.46641 -2.28336,1.143 -2.28336,-3.42107 0,-2.28071 2.28071,1.14035 1.14035,-3.42371 1.14035,-6.46642 z"
       id="path13285"
       inkscape:export-filename="puzzle-4.svg"
       inkscape:export-xdpi="96"
       inkscape:export-ydpi="96" /><path
       style="fill:#ffffff;stroke:#000000;stroke-width:0.264583px"
       d="m 367.58202,153.42653 c 3.04271,0 7.60677,-1.14035 6.46642,1.14036 -1.14035,2.28335 3.42371,2.28335 2.28071,0 -1.14036,-2.28071 3.42371,-1.14036 6.46641,-1.14036 0,3.04271 -1.14035,7.60677 1.14036,6.46642 2.28335,-1.14036 2.28335,3.42371 0,2.28071 -2.28071,-1.14036 -1.14036,3.4237 -1.14036,6.46641 -3.0427,0 -7.60677,-1.14035 -6.46641,1.14036 1.143,2.28335 -3.42106,2.28335 -2.28071,0 1.14035,-2.28071 -3.42371,-1.14036 -6.46642,-1.14036 0,-3.04271 1.14036,-7.60677 -1.14035,-6.46641 -2.28335,1.143 -2.28335,-3.42107 0,-2.28071 2.28071,1.14035 1.14035,-3.42371 1.14035,-6.46642 z"
       id="path13301" /><path
       style="fill:#ffffff;stroke:#000000;stroke-width:0.264583px"
       d="m 382.79556,153.42653 c 3.04271,0 7.60678,1.14036 6.46642,-1.14035 -1.14035,-2.28336 3.42371,-2.28336 2.28071,0 -1.14035,2.28071 3.42371,1.14035 6.46642,1.14035 0,3.04271 1.14036,7.60677 -1.14035,6.46642 -2.28336,-1.14036 -2.28336,3.42371 0,2.28071 2.28071,-1.14036 1.14035,3.4237 1.14035,6.46641 -3.04271,0 -7.60677,-1.14035 -6.46642,1.14036 1.143,2.28335 -3.42106,2.28335 -2.28071,0 1.14036,-2.28071 -3.42371,-1.14036 -6.46642,-1.14036 0,-3.04271 -1.14035,-7.60677 1.14036,-6.46641 2.28335,1.143 2.28335,-3.42107 0,-2.28071 -2.28071,1.14035 -1.14036,-3.42371 -1.14036,-6.46642 z"
       id="path13317" /></g></svg>
