<?xml version="1.0" encoding="UTF-8" standalone="no"?>
<!-- Created with Inkscape (http://www.inkscape.org/) -->

<svg
   width="175.65495"
   height="184.2825"
   viewBox="0 0 46.475371 48.758078"
   version="1.1"
   id="svg5"
   xml:space="preserve"
   inkscape:version="1.2 (dc2aeda, 2022-05-15)"
   sodipodi:docname="wip.svg"
   xmlns:inkscape="http://www.inkscape.org/namespaces/inkscape"
   xmlns:sodipodi="http://sodipodi.sourceforge.net/DTD/sodipodi-0.dtd"
   xmlns="http://www.w3.org/2000/svg"
   xmlns:svg="http://www.w3.org/2000/svg"><sodipodi:namedview
     id="namedview7"
     pagecolor="#ffffff"
     bordercolor="#cccccc"
     borderopacity="1"
     inkscape:showpageshadow="0"
     inkscape:pageopacity="1"
     inkscape:pagecheckerboard="0"
     inkscape:deskcolor="#d1d1d1"
     inkscape:document-units="mm"
     showgrid="false"
     inkscape:zoom="0.57530785"
     inkscape:cx="901.25661"
     inkscape:cy="574.47504"
     inkscape:window-width="1920"
     inkscape:window-height="1027"
     inkscape:window-x="0"
     inkscape:window-y="25"
     inkscape:window-maximized="0"
     inkscape:current-layer="layer1" /><defs
     id="defs2" /><g
     inkscape:label="Layer 1"
     inkscape:groupmode="layer"
     id="layer1"
     transform="translate(-433.41216,-17.436821)"><path
       style="fill:#ffffff;stroke:#000000;stroke-width:0.264583px"
       d="m 433.82951,32.782654 h 15.21354 c 0,3.042708 -1.14035,7.606771 1.14036,6.466417 2.28335,-1.140355 2.28335,3.423708 0,2.280708 -2.28071,-1.140354 -1.14036,3.423708 -1.14036,6.466416 -3.0427,0 -7.60677,1.140355 -6.46641,-1.140354 1.143,-2.283354 -3.42107,-2.283354 -2.28071,0 1.14035,2.280709 -3.42371,1.140354 -6.46642,1.140354 0,-3.042708 -1.14035,-7.60677 1.14036,-6.466416 2.28335,1.143 2.28335,-3.421063 0,-2.280708 -2.28071,1.140354 -1.14036,-3.423709 -1.14036,-6.466417 z"
       id="path13337" /><path
       style="fill:#ffffff;stroke:#000000;stroke-width:0.264583px"
       d="m 433.82951,47.996195 c 3.04271,0 7.60677,1.140355 6.46642,-1.140354 -1.14036,-2.283354 3.42371,-2.283354 2.28071,0 -1.14036,2.280709 3.42371,1.140354 6.46641,1.140354 0,3.042709 1.14036,7.606771 -1.14035,6.466417 -2.28335,-1.140354 -2.28335,3.423708 0,2.280708 2.28071,-1.140354 1.14035,3.423709 1.14035,6.466417 -3.0427,0 -7.60677,-1.140354 -6.46641,1.140354 1.143,2.283354 -3.42107,2.283354 -2.28071,0 1.14035,-2.280708 -3.42371,-1.140354 -6.46642,-1.140354 0,-3.042708 -1.14035,-7.606771 1.14036,-6.466417 2.28335,1.143 2.28335,-3.421062 0,-2.280708 -2.28071,1.140354 -1.14036,-3.423708 -1.14036,-6.466417 z"
       id="path13339" /><path
       style="fill:#ffffff;stroke:#000000;stroke-width:0.264583px"
       d="m 449.04305,32.782654 h 15.21355 c 0,3.042708 1.14035,7.606771 -1.14036,6.466417 -2.28335,-1.140355 -2.28335,3.423708 0,2.280708 2.28071,-1.140354 1.14036,3.423708 1.14036,6.466416 -3.04271,0 -7.60678,-1.140354 -6.46642,1.140355 1.143,2.283354 -3.42106,2.283354 -2.28071,0 1.14035,-2.280709 -3.42371,-1.140355 -6.46642,-1.140355 0,-3.042708 -1.14035,-7.60677 1.14036,-6.466416 2.28335,1.143 2.28335,-3.421063 0,-2.280708 -2.28071,1.140354 -1.14036,-3.423709 -1.14036,-6.466417 z"
       id="path13353" /><path
       style="fill:#ffffff;stroke:#000000;stroke-width:0.264583px"
       d="m 464.25659,32.782654 c 3.04271,0 7.60677,-1.140354 6.46642,1.140355 -1.14035,2.283354 3.42371,2.283354 2.28071,0 -1.14036,-2.280709 3.42371,-1.140355 6.46642,-1.140355 0,3.042709 1.14035,7.606771 -1.14036,6.466417 -2.28335,-1.140354 -2.28335,3.423708 0,2.280708 2.28071,-1.140354 1.14036,3.423709 1.14036,6.466417 -3.04271,0 -7.60678,-1.140354 -6.46642,1.140354 1.143,2.283354 -3.42106,2.283354 -2.28071,0 1.14035,-2.280708 -3.42371,-1.140354 -6.46642,-1.140354 0,-3.042708 1.14036,-7.606771 -1.14035,-6.466417 -2.28335,1.143 -2.28335,-3.421062 0,-2.280708 2.28071,1.140354 1.14035,-3.423708 1.14035,-6.466417 z"
       id="path13355" /><path
       style="fill:#ffffff;stroke:#000000;stroke-width:0.264583px"
       d="m 464.2566,17.569113 h 15.21354 v 15.213541 c -3.04271,0 -7.60677,-1.140354 -6.46642,1.140355 1.143,2.283354 -3.42106,2.283354 -2.28071,0 1.14036,-2.280709 -3.42371,-1.140355 -6.46641,-1.140355 0,-3.042708 1.14035,-7.60677 -1.14036,-6.466416 -2.28335,1.143 -2.28335,-3.421063 0,-2.280708 2.28071,1.140354 1.14036,-3.423709 1.14036,-6.466417 z"
       id="path13369" /></g></svg>
